<svg xmlns="http://www.w3.org/2000/svg" xml:space="preserve" width="1500" height="1500" data-id="lg_UjIj9ozV9BZTu72n05" data-version="1" viewBox="0 0 1500 1500"><path stroke="transparent" d="M0 0h1500v1500H0z"/><g data-padding="20"><g transform="translate(-256.803 -267.02)scale(1.32352)"><path fill="#464646" d="M484.768 677.049c-50.464 0-91.371 40.907-91.371 91.37s40.907 91.372 91.37 91.372 91.372-40.907 91.372-91.371-40.907-91.371-91.371-91.371m47.13 126.242c-3.933 6.083-7.33 12.37-23.73 12.75-16.748 0-34.065-13.856-46.69-27.697-12.592-12.261-24.236-28.077-24.22-43.434.363-16.385 6.667-19.798 12.734-23.716 0 0 3.318-1.39 6.194 1.106 2.89 2.528 15.563 15.2 15.563 15.2s4.503 3.744 1.39 7.9c-2.465 3.317-8.168 9.432-8.911 10.222l2.133 4.029c2.876 4.724 8.327 13.003 16.48 19.718 5.53 4.535 14.836 9.496 14.836 9.496 1.327-1.248 6.904-6.4 10-8.721 4.156-3.113 7.9 1.39 7.9 1.39s12.688 12.672 15.2 15.563 1.107 6.21 1.107 6.21"/><rect width="550.869" height="135.6" x="89.503" y="330.06" fill="none" rx="0" ry="0" transform="translate(487.63 371.3)"/><path fill="#6b6b6b" d="M599.078 806.36h-11.64v-79.44h25.8q7.92 0 14.16 2.46t9.84 7.02 3.6 11.16q0 7.8-3.96 13.02t-11.04 7.8-16.44 2.58h-10.32Zm0-73.08v34.2h10.68q6.12 0 9.84-2.16t5.64-5.4 2.58-6.48.66-5.28q0-.72-.3-2.88t-1.56-4.92-3.96-5.28-7.5-3.84q-3.72 0-8.4.6t-7.68 1.44m62.28 73.08h-10.08V724.4h9.72v35.4q4.44-4.2 9-6.54t9.84-2.34q2.88 0 6.18 1.44t5.64 5.34 2.34 11.34v37.32h-10.08v-36.12q0-5.64-1.98-8.7t-7.38-3.06q-2.64 0-6.18 1.5t-7.02 4.86Zm68.64 1.44q-6.72 0-12.24-3.12t-8.76-9.18-3.24-14.7q0-8.52 2.7-14.28t7.08-9.24 9.42-5.04 9.72-1.56q6.84 0 12.36 3.12t8.76 9.12 3.24 14.76q0 8.52-2.76 14.28t-7.14 9.24-9.42 5.04-9.72 1.56m2.28-4.08q4.2 0 7.2-2.28t4.86-5.94 2.76-7.86.9-8.16q0-6.6-1.62-12.06t-5.4-8.82-10.38-3.36q-7.2 2.76-10.56 9.6t-3.36 14.64q0 6.36 1.56 11.94t4.98 8.94 9.06 3.36m50.04 2.64h-10.2v-37.68q0-4.2-1.14-6.78t-2.58-4.08-2.4-2.22l6.12-4.56 9.84 8.76q4.44-4.2 8.34-6.66t9.18-2.46q2.76 0 6.06 1.44t5.7 5.34 2.4 11.34v37.56h-10.2V770q0-5.64-1.98-8.7t-7.26-3.06q-5.16 0-11.88 6.72Zm69.36 1.44q-7.44 0-13.38-3.12t-9.3-9.12-3.36-14.64q0-9.96 3.84-16.68t10.08-10.14 13.32-3.42q5.64 0 10.26 2.94t7.44 8.76 2.82 14.46h-38.28q0 9.36 2.94 14.7t7.68 7.5 9.9 2.16q4.68 0 8.28-.96t6.6-2.28v4.2q-3.72 2.16-8.52 3.9t-10.32 1.74m-16.08-34.56h28.08q-.36-5.4-2.34-8.76t-4.68-5.1-5.4-2.4-4.5-.66q-4.08 1.92-7.14 6.42t-4.02 10.5m114.36 34.44h-2.04l-52.56-65.76h-.48v64.44h-5.28v-79.44h8.88l45.72 57.72h.48v-57.72h5.28Zm38.28.12q-6.72 0-12.24-3.12t-8.76-9.18-3.24-14.7q0-8.52 2.7-14.28t7.08-9.24 9.42-5.04 9.72-1.56q6.84 0 12.36 3.12t8.76 9.12 3.24 14.76q0 8.52-2.76 14.28t-7.14 9.24-9.42 5.04-9.72 1.56m2.28-4.08q4.2 0 7.2-2.28t4.86-5.94 2.76-7.86.9-8.16q0-6.6-1.62-12.06t-5.4-8.82-10.38-3.36q-7.2 2.76-10.56 9.6t-3.36 14.64q0 6.36 1.56 11.94t4.98 8.94 9.06 3.36m56.64 4.2h-1.8l-23.4-55.8h11.04l15.96 42.36 10.8-29.52-5.4-12.84h11.04l15.96 42.36 15.6-42.36h4.68l-21.96 55.8h-1.92l-15.84-37.44Z"/></g><path fill="transparent" stroke="transparent" stroke-width="1.361" d="M250 625.51h1000v248.98H250z"/></g></svg>